<mxfile host="app.diagrams.net" agent="Mozilla/5.0 (Windows NT 10.0; Win64; x64) AppleWebKit/537.36 (KHTML, like Gecko) Chrome/126.0.0.0 Safari/537.36" version="24.7.7">
  <diagram name="第 1 页" id="QTjSQ-1yjxRxtxUuZA-b">
    <mxGraphModel dx="2536" dy="927" grid="1" gridSize="10" guides="1" tooltips="1" connect="1" arrows="1" fold="1" page="1" pageScale="1" pageWidth="827" pageHeight="1169" math="0" shadow="0">
      <root>
        <mxCell id="0" />
        <mxCell id="1" parent="0" />
        <mxCell id="QH9AOdgC8zUdyQS9NOri-1" value="SE-SDK" style="shape=umlLifeline;perimeter=lifelinePerimeter;whiteSpace=wrap;html=1;container=0;dropTarget=0;collapsible=0;recursiveResize=0;outlineConnect=0;portConstraint=eastwest;newEdgeStyle={&quot;edgeStyle&quot;:&quot;elbowEdgeStyle&quot;,&quot;elbow&quot;:&quot;vertical&quot;,&quot;curved&quot;:0,&quot;rounded&quot;:0};" vertex="1" parent="1">
          <mxGeometry x="-350" y="40" width="100" height="940" as="geometry" />
        </mxCell>
        <mxCell id="QH9AOdgC8zUdyQS9NOri-2" value="" style="html=1;points=[];perimeter=orthogonalPerimeter;outlineConnect=0;targetShapes=umlLifeline;portConstraint=eastwest;newEdgeStyle={&quot;edgeStyle&quot;:&quot;elbowEdgeStyle&quot;,&quot;elbow&quot;:&quot;vertical&quot;,&quot;curved&quot;:0,&quot;rounded&quot;:0};" vertex="1" parent="QH9AOdgC8zUdyQS9NOri-1">
          <mxGeometry x="45" y="80" width="10" height="90" as="geometry" />
        </mxCell>
        <mxCell id="QH9AOdgC8zUdyQS9NOri-3" value="" style="html=1;points=[];perimeter=orthogonalPerimeter;outlineConnect=0;targetShapes=umlLifeline;portConstraint=eastwest;newEdgeStyle={&quot;edgeStyle&quot;:&quot;elbowEdgeStyle&quot;,&quot;elbow&quot;:&quot;vertical&quot;,&quot;curved&quot;:0,&quot;rounded&quot;:0};" vertex="1" parent="QH9AOdgC8zUdyQS9NOri-1">
          <mxGeometry x="45" y="533" width="10" height="99" as="geometry" />
        </mxCell>
        <mxCell id="QH9AOdgC8zUdyQS9NOri-4" value="SDK" style="shape=umlLifeline;perimeter=lifelinePerimeter;whiteSpace=wrap;html=1;container=0;dropTarget=0;collapsible=0;recursiveResize=0;outlineConnect=0;portConstraint=eastwest;newEdgeStyle={&quot;edgeStyle&quot;:&quot;elbowEdgeStyle&quot;,&quot;elbow&quot;:&quot;vertical&quot;,&quot;curved&quot;:0,&quot;rounded&quot;:0};" vertex="1" parent="1">
          <mxGeometry x="-160" y="40" width="100" height="940" as="geometry" />
        </mxCell>
        <mxCell id="QH9AOdgC8zUdyQS9NOri-5" value="" style="html=1;points=[];perimeter=orthogonalPerimeter;outlineConnect=0;targetShapes=umlLifeline;portConstraint=eastwest;newEdgeStyle={&quot;edgeStyle&quot;:&quot;elbowEdgeStyle&quot;,&quot;elbow&quot;:&quot;vertical&quot;,&quot;curved&quot;:0,&quot;rounded&quot;:0};" vertex="1" parent="QH9AOdgC8zUdyQS9NOri-4">
          <mxGeometry x="45" y="60" width="10" height="350" as="geometry" />
        </mxCell>
        <mxCell id="QH9AOdgC8zUdyQS9NOri-6" value="" style="html=1;points=[];perimeter=orthogonalPerimeter;outlineConnect=0;targetShapes=umlLifeline;portConstraint=eastwest;newEdgeStyle={&quot;edgeStyle&quot;:&quot;elbowEdgeStyle&quot;,&quot;elbow&quot;:&quot;vertical&quot;,&quot;curved&quot;:0,&quot;rounded&quot;:0};" vertex="1" parent="QH9AOdgC8zUdyQS9NOri-4">
          <mxGeometry x="45" y="492" width="10" height="390" as="geometry" />
        </mxCell>
        <mxCell id="QH9AOdgC8zUdyQS9NOri-7" value="车主下载钥匙请求" style="html=1;verticalAlign=bottom;endArrow=block;edgeStyle=elbowEdgeStyle;elbow=horizontal;curved=0;rounded=0;" edge="1" parent="1">
          <mxGeometry relative="1" as="geometry">
            <mxPoint x="-117" y="134" as="sourcePoint" />
            <Array as="points" />
            <mxPoint x="-292" y="134" as="targetPoint" />
          </mxGeometry>
        </mxCell>
        <mxCell id="QH9AOdgC8zUdyQS9NOri-8" value="返回签名数据" style="html=1;verticalAlign=bottom;endArrow=open;dashed=1;endSize=8;edgeStyle=elbowEdgeStyle;elbow=vertical;curved=0;rounded=0;" edge="1" parent="1">
          <mxGeometry x="0.0057" relative="1" as="geometry">
            <mxPoint x="-115" y="195" as="targetPoint" />
            <Array as="points">
              <mxPoint x="-200" y="195" />
            </Array>
            <mxPoint x="-290" y="195" as="sourcePoint" />
            <mxPoint as="offset" />
          </mxGeometry>
        </mxCell>
        <mxCell id="QH9AOdgC8zUdyQS9NOri-9" value="DeviceOEM-Server" style="shape=umlLifeline;perimeter=lifelinePerimeter;whiteSpace=wrap;html=1;container=0;dropTarget=0;collapsible=0;recursiveResize=0;outlineConnect=0;portConstraint=eastwest;newEdgeStyle={&quot;edgeStyle&quot;:&quot;elbowEdgeStyle&quot;,&quot;elbow&quot;:&quot;vertical&quot;,&quot;curved&quot;:0,&quot;rounded&quot;:0};" vertex="1" parent="1">
          <mxGeometry x="60" y="40" width="140" height="940" as="geometry" />
        </mxCell>
        <mxCell id="QH9AOdgC8zUdyQS9NOri-10" value="" style="html=1;points=[];perimeter=orthogonalPerimeter;outlineConnect=0;targetShapes=umlLifeline;portConstraint=eastwest;newEdgeStyle={&quot;edgeStyle&quot;:&quot;elbowEdgeStyle&quot;,&quot;elbow&quot;:&quot;vertical&quot;,&quot;curved&quot;:0,&quot;rounded&quot;:0};" vertex="1" parent="QH9AOdgC8zUdyQS9NOri-9">
          <mxGeometry x="65" y="140" width="10" height="220" as="geometry" />
        </mxCell>
        <mxCell id="QH9AOdgC8zUdyQS9NOri-11" value="" style="html=1;points=[];perimeter=orthogonalPerimeter;outlineConnect=0;targetShapes=umlLifeline;portConstraint=eastwest;newEdgeStyle={&quot;edgeStyle&quot;:&quot;elbowEdgeStyle&quot;,&quot;elbow&quot;:&quot;vertical&quot;,&quot;curved&quot;:0,&quot;rounded&quot;:0};" vertex="1" parent="QH9AOdgC8zUdyQS9NOri-9">
          <mxGeometry x="65" y="622" width="10" height="178" as="geometry" />
        </mxCell>
        <mxCell id="QH9AOdgC8zUdyQS9NOri-12" value="" style="endArrow=classic;html=1;rounded=0;" edge="1" parent="QH9AOdgC8zUdyQS9NOri-9">
          <mxGeometry width="50" height="50" relative="1" as="geometry">
            <mxPoint x="80" y="688" as="sourcePoint" />
            <mxPoint x="290" y="688" as="targetPoint" />
          </mxGeometry>
        </mxCell>
        <mxCell id="QH9AOdgC8zUdyQS9NOri-13" value="车主解绑请求" style="edgeLabel;html=1;align=center;verticalAlign=middle;resizable=0;points=[];" vertex="1" connectable="0" parent="QH9AOdgC8zUdyQS9NOri-12">
          <mxGeometry x="-0.1703" y="2" relative="1" as="geometry">
            <mxPoint as="offset" />
          </mxGeometry>
        </mxCell>
        <mxCell id="QH9AOdgC8zUdyQS9NOri-14" value="返回" style="html=1;verticalAlign=bottom;endArrow=open;dashed=1;endSize=8;edgeStyle=elbowEdgeStyle;elbow=vertical;curved=0;rounded=0;" edge="1" parent="QH9AOdgC8zUdyQS9NOri-9" target="QH9AOdgC8zUdyQS9NOri-11">
          <mxGeometry relative="1" as="geometry">
            <mxPoint x="80" y="724" as="targetPoint" />
            <Array as="points" />
            <mxPoint x="290" y="726" as="sourcePoint" />
          </mxGeometry>
        </mxCell>
        <mxCell id="QH9AOdgC8zUdyQS9NOri-15" value="&lt;font style=&quot;font-size: 11px;&quot;&gt;验证请求设备合法性&lt;/font&gt;" style="html=1;align=left;spacingLeft=2;endArrow=block;rounded=0;edgeStyle=orthogonalEdgeStyle;curved=0;rounded=0;fontFamily=Helvetica;fontSize=12;fontColor=default;" edge="1" parent="QH9AOdgC8zUdyQS9NOri-9">
          <mxGeometry relative="1" as="geometry">
            <mxPoint x="75" y="643" as="sourcePoint" />
            <Array as="points">
              <mxPoint x="105" y="643" />
              <mxPoint x="105" y="673" />
            </Array>
            <mxPoint x="75" y="673" as="targetPoint" />
          </mxGeometry>
        </mxCell>
        <mxCell id="QH9AOdgC8zUdyQS9NOri-16" value="VehicleOEM-Server" style="shape=umlLifeline;perimeter=lifelinePerimeter;whiteSpace=wrap;html=1;container=0;dropTarget=0;collapsible=0;recursiveResize=0;outlineConnect=0;portConstraint=eastwest;newEdgeStyle={&quot;edgeStyle&quot;:&quot;elbowEdgeStyle&quot;,&quot;elbow&quot;:&quot;vertical&quot;,&quot;curved&quot;:0,&quot;rounded&quot;:0};" vertex="1" parent="1">
          <mxGeometry x="290" y="40" width="140" height="940" as="geometry" />
        </mxCell>
        <mxCell id="QH9AOdgC8zUdyQS9NOri-17" value="" style="html=1;points=[];perimeter=orthogonalPerimeter;outlineConnect=0;targetShapes=umlLifeline;portConstraint=eastwest;newEdgeStyle={&quot;edgeStyle&quot;:&quot;elbowEdgeStyle&quot;,&quot;elbow&quot;:&quot;vertical&quot;,&quot;curved&quot;:0,&quot;rounded&quot;:0};" vertex="1" parent="QH9AOdgC8zUdyQS9NOri-16">
          <mxGeometry x="65" y="682" width="10" height="120" as="geometry" />
        </mxCell>
        <mxCell id="QH9AOdgC8zUdyQS9NOri-18" value="删除车主所有钥匙" style="html=1;align=left;spacingLeft=2;endArrow=block;rounded=0;edgeStyle=orthogonalEdgeStyle;curved=0;rounded=0;fontFamily=Helvetica;fontSize=12;fontColor=default;" edge="1" parent="QH9AOdgC8zUdyQS9NOri-16">
          <mxGeometry relative="1" as="geometry">
            <mxPoint x="75" y="691" as="sourcePoint" />
            <Array as="points">
              <mxPoint x="110" y="691" />
              <mxPoint x="110" y="721" />
            </Array>
            <mxPoint x="75" y="721" as="targetPoint" />
          </mxGeometry>
        </mxCell>
        <mxCell id="QH9AOdgC8zUdyQS9NOri-19" value="" style="html=1;points=[];perimeter=orthogonalPerimeter;outlineConnect=0;targetShapes=umlLifeline;portConstraint=eastwest;newEdgeStyle={&quot;edgeStyle&quot;:&quot;elbowEdgeStyle&quot;,&quot;elbow&quot;:&quot;vertical&quot;,&quot;curved&quot;:0,&quot;rounded&quot;:0};" vertex="1" parent="QH9AOdgC8zUdyQS9NOri-16">
          <mxGeometry x="65" y="210" width="10" height="140" as="geometry" />
        </mxCell>
        <mxCell id="QH9AOdgC8zUdyQS9NOri-20" value="生成车主钥匙" style="html=1;align=left;spacingLeft=2;endArrow=block;rounded=0;edgeStyle=orthogonalEdgeStyle;curved=0;rounded=0;fontFamily=Helvetica;fontSize=12;fontColor=default;" edge="1" parent="QH9AOdgC8zUdyQS9NOri-16">
          <mxGeometry relative="1" as="geometry">
            <mxPoint x="75" y="219" as="sourcePoint" />
            <Array as="points">
              <mxPoint x="110" y="219" />
              <mxPoint x="110" y="249" />
            </Array>
            <mxPoint x="75" y="249" as="targetPoint" />
          </mxGeometry>
        </mxCell>
        <mxCell id="QH9AOdgC8zUdyQS9NOri-21" value="Vehicle" style="shape=umlLifeline;perimeter=lifelinePerimeter;whiteSpace=wrap;html=1;container=0;dropTarget=0;collapsible=0;recursiveResize=0;outlineConnect=0;portConstraint=eastwest;newEdgeStyle={&quot;edgeStyle&quot;:&quot;elbowEdgeStyle&quot;,&quot;elbow&quot;:&quot;vertical&quot;,&quot;curved&quot;:0,&quot;rounded&quot;:0};" vertex="1" parent="1">
          <mxGeometry x="530" y="40" width="140" height="940" as="geometry" />
        </mxCell>
        <mxCell id="QH9AOdgC8zUdyQS9NOri-23" value="" style="endArrow=classic;html=1;rounded=0;" edge="1" parent="1">
          <mxGeometry width="50" height="50" relative="1" as="geometry">
            <mxPoint x="-105" y="199" as="sourcePoint" />
            <mxPoint x="120" y="199" as="targetPoint" />
          </mxGeometry>
        </mxCell>
        <mxCell id="QH9AOdgC8zUdyQS9NOri-24" value="下载车主钥匙请求" style="edgeLabel;html=1;align=center;verticalAlign=middle;resizable=0;points=[];" vertex="1" connectable="0" parent="QH9AOdgC8zUdyQS9NOri-23">
          <mxGeometry x="-0.1703" y="2" relative="1" as="geometry">
            <mxPoint as="offset" />
          </mxGeometry>
        </mxCell>
        <mxCell id="QH9AOdgC8zUdyQS9NOri-25" value="&lt;font style=&quot;font-size: 11px;&quot;&gt;验证请求设备合法性&lt;/font&gt;" style="html=1;align=left;spacingLeft=2;endArrow=block;rounded=0;edgeStyle=orthogonalEdgeStyle;curved=0;rounded=0;fontFamily=Helvetica;fontSize=12;fontColor=default;" edge="1" parent="1">
          <mxGeometry relative="1" as="geometry">
            <mxPoint x="135" y="201" as="sourcePoint" />
            <Array as="points">
              <mxPoint x="165" y="201" />
              <mxPoint x="165" y="231" />
            </Array>
            <mxPoint x="135" y="231" as="targetPoint" />
          </mxGeometry>
        </mxCell>
        <mxCell id="QH9AOdgC8zUdyQS9NOri-27" value="车主下载钥匙" style="shape=umlFrame;whiteSpace=wrap;html=1;pointerEvents=0;sketch=0;strokeColor=default;align=center;verticalAlign=middle;fontFamily=Helvetica;fontSize=12;fontColor=default;fillColor=default;" vertex="1" parent="1">
          <mxGeometry x="-440" y="90" width="1230" height="380" as="geometry" />
        </mxCell>
        <mxCell id="QH9AOdgC8zUdyQS9NOri-28" value="请求数据签名" style="html=1;align=left;spacingLeft=2;endArrow=block;rounded=0;edgeStyle=orthogonalEdgeStyle;curved=0;rounded=0;fontFamily=Helvetica;fontSize=12;fontColor=default;" edge="1" parent="1">
          <mxGeometry relative="1" as="geometry">
            <mxPoint x="-290" y="150" as="sourcePoint" />
            <Array as="points">
              <mxPoint x="-260" y="150" />
              <mxPoint x="-260" y="180" />
            </Array>
            <mxPoint x="-290" y="180" as="targetPoint" />
          </mxGeometry>
        </mxCell>
        <mxCell id="QH9AOdgC8zUdyQS9NOri-30" value="" style="endArrow=classic;html=1;rounded=0;" edge="1" parent="1">
          <mxGeometry width="50" height="50" relative="1" as="geometry">
            <mxPoint x="-115" y="589" as="sourcePoint" />
            <mxPoint x="-297.5" y="589" as="targetPoint" />
          </mxGeometry>
        </mxCell>
        <mxCell id="QH9AOdgC8zUdyQS9NOri-31" value="车主解绑请求" style="edgeLabel;html=1;align=center;verticalAlign=middle;resizable=0;points=[];" vertex="1" connectable="0" parent="QH9AOdgC8zUdyQS9NOri-30">
          <mxGeometry x="-0.1703" y="2" relative="1" as="geometry">
            <mxPoint x="-11" y="-3" as="offset" />
          </mxGeometry>
        </mxCell>
        <mxCell id="QH9AOdgC8zUdyQS9NOri-32" value="&lt;font style=&quot;font-size: 11px;&quot;&gt;请求数据签名&lt;/font&gt;" style="html=1;align=left;spacingLeft=2;endArrow=block;rounded=0;edgeStyle=orthogonalEdgeStyle;curved=0;rounded=0;fontFamily=Helvetica;fontSize=12;fontColor=default;" edge="1" parent="1">
          <mxGeometry relative="1" as="geometry">
            <mxPoint x="-295" y="608" as="sourcePoint" />
            <Array as="points">
              <mxPoint x="-265" y="608" />
              <mxPoint x="-265" y="638" />
            </Array>
            <mxPoint x="-295" y="638" as="targetPoint" />
          </mxGeometry>
        </mxCell>
        <mxCell id="QH9AOdgC8zUdyQS9NOri-33" value="返回签名数据" style="html=1;verticalAlign=bottom;endArrow=open;dashed=1;endSize=8;edgeStyle=elbowEdgeStyle;elbow=vertical;curved=0;rounded=0;" edge="1" parent="1">
          <mxGeometry relative="1" as="geometry">
            <mxPoint x="-115" y="663" as="targetPoint" />
            <Array as="points">
              <mxPoint x="-200" y="663" />
            </Array>
            <mxPoint x="-290" y="663" as="sourcePoint" />
          </mxGeometry>
        </mxCell>
        <mxCell id="QH9AOdgC8zUdyQS9NOri-34" value="" style="endArrow=classic;html=1;rounded=0;" edge="1" parent="1">
          <mxGeometry width="50" height="50" relative="1" as="geometry">
            <mxPoint x="-100" y="677" as="sourcePoint" />
            <mxPoint x="125" y="677" as="targetPoint" />
          </mxGeometry>
        </mxCell>
        <mxCell id="QH9AOdgC8zUdyQS9NOri-35" value="车主解绑请求" style="edgeLabel;html=1;align=center;verticalAlign=middle;resizable=0;points=[];" vertex="1" connectable="0" parent="QH9AOdgC8zUdyQS9NOri-34">
          <mxGeometry x="-0.1703" y="2" relative="1" as="geometry">
            <mxPoint as="offset" />
          </mxGeometry>
        </mxCell>
        <mxCell id="QH9AOdgC8zUdyQS9NOri-36" value="车主解绑" style="shape=umlFrame;whiteSpace=wrap;html=1;pointerEvents=0;sketch=0;strokeColor=default;align=center;verticalAlign=middle;fontFamily=Helvetica;fontSize=12;fontColor=default;fillColor=default;" vertex="1" parent="1">
          <mxGeometry x="-440" y="522" width="1230" height="440" as="geometry" />
        </mxCell>
        <mxCell id="QH9AOdgC8zUdyQS9NOri-37" value="返回" style="html=1;verticalAlign=bottom;endArrow=open;dashed=1;endSize=8;edgeStyle=elbowEdgeStyle;elbow=vertical;curved=0;rounded=0;" edge="1" parent="1">
          <mxGeometry relative="1" as="geometry">
            <mxPoint x="-105" y="823" as="targetPoint" />
            <Array as="points" />
            <mxPoint x="125" y="823" as="sourcePoint" />
          </mxGeometry>
        </mxCell>
        <mxCell id="QH9AOdgC8zUdyQS9NOri-38" value="" style="endArrow=classic;html=1;rounded=0;" edge="1" parent="1">
          <mxGeometry width="50" height="50" relative="1" as="geometry">
            <mxPoint x="-117.5" y="835" as="sourcePoint" />
            <mxPoint x="-300" y="835" as="targetPoint" />
          </mxGeometry>
        </mxCell>
        <mxCell id="QH9AOdgC8zUdyQS9NOri-58" value="删除车主钥匙" style="edgeLabel;html=1;align=center;verticalAlign=middle;resizable=0;points=[];" vertex="1" connectable="0" parent="QH9AOdgC8zUdyQS9NOri-38">
          <mxGeometry x="0.0184" y="1" relative="1" as="geometry">
            <mxPoint y="-2" as="offset" />
          </mxGeometry>
        </mxCell>
        <mxCell id="QH9AOdgC8zUdyQS9NOri-40" value="" style="html=1;points=[];perimeter=orthogonalPerimeter;outlineConnect=0;targetShapes=umlLifeline;portConstraint=eastwest;newEdgeStyle={&quot;edgeStyle&quot;:&quot;elbowEdgeStyle&quot;,&quot;elbow&quot;:&quot;vertical&quot;,&quot;curved&quot;:0,&quot;rounded&quot;:0};" vertex="1" parent="1">
          <mxGeometry x="-306" y="821" width="10" height="99" as="geometry" />
        </mxCell>
        <mxCell id="QH9AOdgC8zUdyQS9NOri-41" value="验证数据合法性&lt;div&gt;删除车主钥匙&lt;/div&gt;" style="html=1;align=left;spacingLeft=2;endArrow=block;rounded=0;edgeStyle=orthogonalEdgeStyle;curved=0;rounded=0;fontFamily=Helvetica;fontSize=12;fontColor=default;" edge="1" parent="1">
          <mxGeometry relative="1" as="geometry">
            <mxPoint x="-296" y="856" as="sourcePoint" />
            <Array as="points">
              <mxPoint x="-266" y="856" />
              <mxPoint x="-266" y="886" />
            </Array>
            <mxPoint x="-296" y="886" as="targetPoint" />
            <mxPoint as="offset" />
          </mxGeometry>
        </mxCell>
        <mxCell id="QH9AOdgC8zUdyQS9NOri-42" value="返回" style="html=1;verticalAlign=bottom;endArrow=open;dashed=1;endSize=8;edgeStyle=elbowEdgeStyle;elbow=horizontal;curved=0;rounded=0;" edge="1" parent="1">
          <mxGeometry relative="1" as="geometry">
            <mxPoint x="-121" y="905" as="targetPoint" />
            <Array as="points">
              <mxPoint x="-206" y="905" />
            </Array>
            <mxPoint x="-296" y="905" as="sourcePoint" />
          </mxGeometry>
        </mxCell>
        <mxCell id="QH9AOdgC8zUdyQS9NOri-43" value="" style="endArrow=classic;html=1;rounded=0;" edge="1" parent="1">
          <mxGeometry width="50" height="50" relative="1" as="geometry">
            <mxPoint x="140" y="260" as="sourcePoint" />
            <mxPoint x="355" y="260" as="targetPoint" />
          </mxGeometry>
        </mxCell>
        <mxCell id="QH9AOdgC8zUdyQS9NOri-44" value="下载车主钥匙请求" style="edgeLabel;html=1;align=center;verticalAlign=middle;resizable=0;points=[];" vertex="1" connectable="0" parent="QH9AOdgC8zUdyQS9NOri-43">
          <mxGeometry x="-0.1703" y="2" relative="1" as="geometry">
            <mxPoint as="offset" />
          </mxGeometry>
        </mxCell>
        <mxCell id="QH9AOdgC8zUdyQS9NOri-49" value="返回" style="html=1;verticalAlign=bottom;endArrow=open;dashed=1;endSize=8;edgeStyle=elbowEdgeStyle;elbow=vertical;curved=0;rounded=0;" edge="1" parent="1">
          <mxGeometry relative="1" as="geometry">
            <mxPoint x="140" y="307" as="targetPoint" />
            <Array as="points" />
            <mxPoint x="355" y="307" as="sourcePoint" />
          </mxGeometry>
        </mxCell>
        <mxCell id="QH9AOdgC8zUdyQS9NOri-50" value="返回" style="html=1;verticalAlign=bottom;endArrow=open;dashed=1;endSize=8;edgeStyle=elbowEdgeStyle;elbow=vertical;curved=0;rounded=0;" edge="1" parent="1">
          <mxGeometry relative="1" as="geometry">
            <mxPoint x="-105" y="337" as="targetPoint" />
            <Array as="points" />
            <mxPoint x="125" y="337" as="sourcePoint" />
          </mxGeometry>
        </mxCell>
        <mxCell id="QH9AOdgC8zUdyQS9NOri-52" value="" style="html=1;points=[];perimeter=orthogonalPerimeter;outlineConnect=0;targetShapes=umlLifeline;portConstraint=eastwest;newEdgeStyle={&quot;edgeStyle&quot;:&quot;elbowEdgeStyle&quot;,&quot;elbow&quot;:&quot;vertical&quot;,&quot;curved&quot;:0,&quot;rounded&quot;:0};" vertex="1" parent="1">
          <mxGeometry x="-306" y="350" width="10" height="80" as="geometry" />
        </mxCell>
        <mxCell id="QH9AOdgC8zUdyQS9NOri-53" value="保存车主下载钥匙" style="html=1;verticalAlign=bottom;endArrow=block;edgeStyle=elbowEdgeStyle;elbow=horizontal;curved=0;rounded=0;" edge="1" parent="1">
          <mxGeometry relative="1" as="geometry">
            <mxPoint x="-121" y="360" as="sourcePoint" />
            <Array as="points" />
            <mxPoint x="-296" y="360" as="targetPoint" />
          </mxGeometry>
        </mxCell>
        <mxCell id="QH9AOdgC8zUdyQS9NOri-54" value="返回" style="html=1;verticalAlign=bottom;endArrow=open;dashed=1;endSize=8;edgeStyle=elbowEdgeStyle;elbow=vertical;curved=0;rounded=0;" edge="1" parent="1">
          <mxGeometry x="0.0057" relative="1" as="geometry">
            <mxPoint x="-115" y="422" as="targetPoint" />
            <Array as="points">
              <mxPoint x="-200" y="422" />
            </Array>
            <mxPoint x="-290" y="422" as="sourcePoint" />
            <mxPoint as="offset" />
          </mxGeometry>
        </mxCell>
        <mxCell id="QH9AOdgC8zUdyQS9NOri-55" value="保存钥匙" style="html=1;align=left;spacingLeft=2;endArrow=block;rounded=0;edgeStyle=orthogonalEdgeStyle;curved=0;rounded=0;fontFamily=Helvetica;fontSize=12;fontColor=default;" edge="1" parent="1">
          <mxGeometry relative="1" as="geometry">
            <mxPoint x="-296" y="376" as="sourcePoint" />
            <Array as="points">
              <mxPoint x="-266" y="376" />
              <mxPoint x="-266" y="406" />
            </Array>
            <mxPoint x="-296" y="406" as="targetPoint" />
          </mxGeometry>
        </mxCell>
        <mxCell id="QH9AOdgC8zUdyQS9NOri-59" value="&lt;span style=&quot;font-size: 11px;&quot;&gt;删除车主钥匙数据签名&lt;/span&gt;" style="html=1;align=left;spacingLeft=2;endArrow=block;rounded=0;edgeStyle=orthogonalEdgeStyle;curved=0;rounded=0;fontFamily=Helvetica;fontSize=12;fontColor=default;" edge="1" parent="1">
          <mxGeometry relative="1" as="geometry">
            <mxPoint x="137" y="781" as="sourcePoint" />
            <Array as="points">
              <mxPoint x="167" y="781" />
              <mxPoint x="167" y="811" />
            </Array>
            <mxPoint x="137" y="811" as="targetPoint" />
          </mxGeometry>
        </mxCell>
      </root>
    </mxGraphModel>
  </diagram>
</mxfile>
